<svg xmlns="http://www.w3.org/2000/svg" xmlns:xlink="http://www.w3.org/1999/xlink" preserveAspectRatio="xMidYMid" width="16.031" height="14.26" viewBox="0 0 16.031 14.26">
  <defs>
    <style>
      .cls-1 {
        fill: #95e1d3;
        fill-rule: evenodd;
      }
    </style>
  </defs>
  <path d="M8.447,12.238 C7.874,12.238 7.313,12.073 6.771,11.995 C4.580,14.766 1.124,14.220 1.124,14.220 C3.565,13.065 3.515,11.151 3.081,10.896 C1.165,9.770 0.013,8.056 0.013,6.135 C0.013,2.745 3.740,-0.004 8.447,-0.004 C13.155,-0.004 16.024,2.745 16.024,6.135 C16.024,9.527 13.155,12.238 8.447,12.238 ZM4.273,4.755 C3.445,4.755 2.773,5.426 2.773,6.255 C2.773,7.083 3.445,7.755 4.273,7.755 C5.102,7.755 5.773,7.083 5.773,6.255 C5.773,5.426 5.102,4.755 4.273,4.755 ZM8.023,4.755 C7.195,4.755 6.523,5.426 6.523,6.255 C6.523,7.083 7.195,7.755 8.023,7.755 C8.852,7.755 9.523,7.083 9.523,6.255 C9.523,5.426 8.852,4.755 8.023,4.755 ZM11.773,4.755 C10.945,4.755 10.273,5.426 10.273,6.255 C10.273,7.083 10.945,7.755 11.773,7.755 C12.602,7.755 13.273,7.083 13.273,6.255 C13.273,5.426 12.602,4.755 11.773,4.755 Z" class="cls-1"/>
</svg>
