<svg xmlns="http://www.w3.org/2000/svg" xmlns:xlink="http://www.w3.org/1999/xlink" preserveAspectRatio="xMidYMid" width="19.438" height="11.26" viewBox="0 0 19.438 11.26">
  <defs>
    <style>
      .cls-1 {
        fill: #95e1d3;
        fill-rule: evenodd;
      }
    </style>
  </defs>
  <path d="M19.429,5.656 C19.428,5.664 19.428,5.673 19.427,5.680 C19.427,5.684 19.426,5.689 19.426,5.693 C19.426,5.699 19.424,5.705 19.424,5.710 C19.423,5.717 19.422,5.724 19.421,5.731 C19.421,5.732 19.421,5.733 19.421,5.733 C19.397,5.888 19.326,6.031 19.218,6.143 C19.014,6.390 18.791,6.622 18.567,6.850 C17.355,8.080 15.965,9.177 14.444,9.972 C13.471,10.481 12.432,10.891 11.354,11.088 C10.169,11.305 8.983,11.294 7.804,11.038 C5.764,10.594 3.917,9.493 2.301,8.175 C1.551,7.564 0.813,6.895 0.193,6.143 C-0.079,5.814 -0.079,5.424 0.193,5.095 C0.396,4.848 0.619,4.615 0.844,4.387 C2.055,3.158 3.445,2.061 4.967,1.265 C5.939,0.757 6.978,0.346 8.056,0.149 C9.241,-0.067 10.427,-0.057 11.606,0.200 C13.646,0.643 15.493,1.745 17.109,3.062 C17.859,3.673 18.597,4.343 19.217,5.095 C19.325,5.206 19.396,5.350 19.420,5.504 C19.420,5.505 19.420,5.506 19.421,5.507 C19.422,5.513 19.423,5.521 19.423,5.527 C19.424,5.533 19.425,5.539 19.426,5.545 C19.426,5.549 19.426,5.553 19.427,5.557 C19.427,5.565 19.428,5.574 19.428,5.582 C19.429,5.594 19.430,5.606 19.430,5.619 C19.430,5.631 19.429,5.644 19.429,5.656 ZM9.709,1.822 C7.696,1.822 6.064,3.454 6.064,5.467 C6.064,7.480 7.696,9.112 9.709,9.112 C11.722,9.112 13.355,7.480 13.355,5.467 C13.355,3.454 11.722,1.822 9.709,1.822 ZM9.709,7.289 C8.703,7.289 7.887,6.474 7.887,5.467 C7.887,4.460 8.703,3.644 9.709,3.644 C10.716,3.644 11.532,4.460 11.532,5.467 C11.532,6.474 10.716,7.289 9.709,7.289 Z" class="cls-1"/>
</svg>
